<svg width="400" height="300" xmlns="http://www.w3.org/2000/svg">
  <defs>
    <linearGradient id="codeGrad" x1="0%" y1="0%" x2="100%" y2="100%">
      <stop offset="0%" style="stop-color:#111827;stop-opacity:1" />
      <stop offset="100%" style="stop-color:#1f2937;stop-opacity:1" />
    </linearGradient>
  </defs>
  <rect width="400" height="300" fill="url(#codeGrad)"/>
  
  <!-- Terminal/Code editor mockup -->
  <rect x="20" y="30" width="360" height="240" rx="8" fill="#0f172a" stroke="#374151" stroke-width="1"/>
  
  <!-- Header bar -->
  <rect x="20" y="30" width="360" height="25" rx="8" fill="#1e293b"/>
  <rect x="20" y="47" width="360" height="8" fill="#1e293b"/>
  
  <!-- Dots -->
  <circle cx="35" cy="42" r="3" fill="#ef4444"/>
  <circle cx="50" cy="42" r="3" fill="#f59e0b"/>
  <circle cx="65" cy="42" r="3" fill="#10b981"/>
  
  <!-- Code lines -->
  <text x="35" y="80" fill="#8b5cf6" font-family="monospace" font-size="12">function</text>
  <text x="95" y="80" fill="#06b6d4" font-family="monospace" font-size="12">deployContract</text>
  <text x="185" y="80" fill="#d1d5db" font-family="monospace" font-size="12">() {</text>
  
  <text x="45" y="100" fill="#f59e0b" font-family="monospace" font-size="12">const</text>
  <text x="85" y="100" fill="#d1d5db" font-family="monospace" font-size="12">contract = </text>
  <text x="155" y="100" fill="#10b981" font-family="monospace" font-size="12">"0x1234..."</text>
  
  <text x="45" y="120" fill="#ec4899" font-family="monospace" font-size="12">return</text>
  <text x="95" y="120" fill="#d1d5db" font-family="monospace" font-size="12">await deploy(contract);</text>
  
  <text x="35" y="140" fill="#d1d5db" font-family="monospace" font-size="12">}</text>
  
  <!-- More code lines -->
  <rect x="35" y="160" width="120" height="2" fill="#3b82f6" opacity="0.5"/>
  <rect x="35" y="170" width="80" height="2" fill="#64748b" opacity="0.5"/>
  <rect x="35" y="180" width="140" height="2" fill="#64748b" opacity="0.5"/>
  <rect x="35" y="190" width="90" height="2" fill="#64748b" opacity="0.5"/>
  
  <text x="200" y="260" text-anchor="middle" fill="#94a3b8" font-family="sans-serif" font-size="16">Code Repository</text>
</svg>