<svg width="400" height="300" xmlns="http://www.w3.org/2000/svg">
  <defs>
    <linearGradient id="webGrad" x1="0%" y1="0%" x2="100%" y2="100%">
      <stop offset="0%" style="stop-color:#0f172a;stop-opacity:1" />
      <stop offset="100%" style="stop-color:#1e293b;stop-opacity:1" />
    </linearGradient>
  </defs>
  <rect width="400" height="300" fill="url(#webGrad)"/>
  
  <!-- Browser window mockup -->
  <rect x="30" y="40" width="340" height="220" rx="8" fill="#1e293b" stroke="#334155" stroke-width="2"/>
  
  <!-- Browser header -->
  <rect x="30" y="40" width="340" height="30" rx="8" fill="#334155"/>
  <rect x="30" y="58" width="340" height="12" fill="#334155"/>
  
  <!-- Traffic lights -->
  <circle cx="50" cy="55" r="4" fill="#ef4444"/>
  <circle cx="70" cy="55" r="4" fill="#f59e0b"/>
  <circle cx="90" cy="55" r="4" fill="#10b981"/>
  
  <!-- Content area -->
  <rect x="50" y="90" width="300" height="8" fill="#3b82f6" opacity="0.6"/>
  <rect x="50" y="110" width="200" height="6" fill="#64748b" opacity="0.5"/>
  <rect x="50" y="125" width="250" height="6" fill="#64748b" opacity="0.5"/>
  <rect x="50" y="140" width="180" height="6" fill="#64748b" opacity="0.5"/>
  
  <!-- Cards/components -->
  <rect x="50" y="160" width="80" height="60" rx="4" fill="#374151" opacity="0.7"/>
  <rect x="145" y="160" width="80" height="60" rx="4" fill="#374151" opacity="0.7"/>
  <rect x="240" y="160" width="80" height="60" rx="4" fill="#374151" opacity="0.7"/>
  
  <text x="200" y="280" text-anchor="middle" fill="#94a3b8" font-family="sans-serif" font-size="16">Web Application</text>
</svg>