<?xml version="1.0" encoding="UTF-8"?>
<!DOCTYPE svg PUBLIC "-//W3C//DTD SVG 1.1//EN" "http://www.w3.org/Graphics/SVG/1.1/DTD/svg11.dtd">
<svg xmlns="http://www.w3.org/2000/svg" version="1.1" width="200px" height="200px" style="shape-rendering:geometricPrecision; text-rendering:geometricPrecision; image-rendering:optimizeQuality; fill-rule:evenodd; clip-rule:evenodd" xmlns:xlink="http://www.w3.org/1999/xlink">
<g><path style="opacity:1" fill="#252525" d="M 30.5,38.5 C 33.5,36.1667 36.1667,33.5 38.5,30.5C 50.1042,19.695 63.7708,12.5283 79.5,9C 125.661,1.58765 160.161,18.0877 183,58.5C 198.599,95.1236 194.265,129.124 170,160.5C 140.607,190.889 105.774,199.389 65.5,186C 28.1149,169.435 8.44827,140.602 6.5,99.5C 7.04445,82.3692 11.5445,66.3692 20,51.5C 22.9849,46.6888 26.4849,42.3555 30.5,38.5 Z"/></g>
<g><path style="opacity:1" fill="#f8f8f8" d="M 91.5,10.5 C 137.815,10.0193 168.982,31.3527 185,74.5C 193.631,111.27 184.131,142.436 156.5,168C 117.881,195.648 79.5473,195.315 41.5,167C 14.9041,141.792 5.73745,111.292 14,75.5C 23.2374,45.9286 42.404,25.7619 71.5,15C 78.2766,13.3371 84.9432,11.8371 91.5,10.5 Z"/></g>
<g><path style="opacity:1" fill="#020202" d="M 93.5,15.5 C 98.1785,15.3342 102.845,15.5008 107.5,16C 108,16.5 108.5,17 109,17.5C 108.373,26.5983 106.873,35.5983 104.5,44.5C 101.833,44.5 99.1667,44.5 96.5,44.5C 94.3472,36.8893 92.3472,29.2226 90.5,21.5C 90.6284,19.0452 91.6284,17.0452 93.5,15.5 Z"/></g>
<g><path style="opacity:1" fill="#080808" d="M 75.5,19.5 C 80.3207,19.0353 83.4874,21.0353 85,25.5C 87.932,32.2755 89.5987,39.2755 90,46.5C 88.087,48.1869 85.9203,48.6869 83.5,48C 77,42.8333 71.1667,37 66,30.5C 65.2025,28.7412 65.3691,27.0745 66.5,25.5C 69.7376,23.7247 72.7376,21.7247 75.5,19.5 Z"/></g>
<g><path style="opacity:1" fill="#050505" d="M 119.5,19.5 C 125.993,20.2372 130.993,23.2372 134.5,28.5C 128.829,36.3375 121.996,43.0041 114,48.5C 109.794,47.4068 108.461,44.7402 110,40.5C 111.663,35.5109 113.33,30.5109 115,25.5C 115.804,22.8541 117.304,20.8541 119.5,19.5 Z"/></g>
<g><path style="opacity:1" fill="#060606" d="M 55.5,31.5 C 58.0588,31.3896 60.3921,32.0562 62.5,33.5C 67.0186,39.8731 71.0186,46.5398 74.5,53.5C 74.1243,55.3829 73.1243,56.8829 71.5,58C 68.2975,57.9137 65.2975,56.9137 62.5,55C 56.9127,51.2899 51.4127,47.4565 46,43.5C 45.3333,42.5 45.3333,41.5 46,40.5C 49.0623,37.2678 52.229,34.2678 55.5,31.5 Z"/></g>
<g><path style="opacity:1" fill="#080808" d="M 138.5,31.5 C 141.32,31.2475 143.986,31.7475 146.5,33C 149,35.5 151.5,38 154,40.5C 154.667,41.5 154.667,42.5 154,43.5C 147.92,47.7905 141.753,51.9571 135.5,56C 133.35,57.5899 131.017,58.2566 128.5,58C 127.167,56.6667 125.833,55.3333 124.5,54C 129.052,46.388 133.719,38.888 138.5,31.5 Z"/></g>
<g><path style="opacity:0.757" fill="#7a7a7a" d="M 38.5,30.5 C 36.1667,33.5 33.5,36.1667 30.5,38.5C 32.1667,34.8333 34.8333,32.1667 38.5,30.5 Z"/></g>
<g><path style="opacity:1" fill="#070707" d="M 37.5,45.5 C 39.5273,45.3379 41.5273,45.5045 43.5,46C 49.883,52.1276 55.5497,58.7943 60.5,66C 58.0172,70.7707 54.3505,71.7707 49.5,69C 42.761,65.8815 36.261,62.3815 30,58.5C 29.3333,57.5 29.3333,56.5 30,55.5C 32.7167,52.2896 35.2167,48.9563 37.5,45.5 Z"/></g>
<g><path style="opacity:1" fill="#050505" d="M 156.5,45.5 C 158.591,45.3184 160.591,45.6518 162.5,46.5C 165.188,49.354 167.688,52.354 170,55.5C 170.667,56.5 170.667,57.5 170,58.5C 161.618,64.4479 152.451,68.2812 142.5,70C 140.203,68.7367 139.37,66.9034 140,64.5C 145.036,57.7614 150.536,51.4281 156.5,45.5 Z"/></g>
<g><path style="opacity:1" fill="#060606" d="M 25.5,64.5 C 34.4879,66.324 42.8212,69.824 50.5,75C 52.6732,76.8647 53.0066,79.0314 51.5,81.5C 41.4564,82.8954 31.4564,82.7287 21.5,81C 20.049,74.8479 21.3823,69.3479 25.5,64.5 Z"/></g>
<g><path style="opacity:1" fill="#060606" d="M 168.5,64.5 C 171.862,64.0695 174.695,65.0695 177,67.5C 179.077,71.9222 179.577,76.4222 178.5,81C 168.523,82.6295 158.523,82.7962 148.5,81.5C 147.294,79.4841 147.294,77.4841 148.5,75.5C 155.229,71.8053 161.895,68.1386 168.5,64.5 Z"/></g>
<g><path style="opacity:1" fill="#090909" d="M 108.5,98.5 C 119.537,108.204 130.87,117.538 142.5,126.5C 143.171,129.986 142.171,132.653 139.5,134.5C 138.5,134.5 137.5,134.5 136.5,134.5C 125.13,124.463 113.464,114.796 101.5,105.5C 98.1294,102.129 94.4627,99.1285 90.5,96.5C 82.5252,89.3648 74.3586,82.3648 66,75.5C 65.1529,71.5285 66.6529,68.8618 70.5,67.5C 83.2049,77.88 95.8715,88.2133 108.5,98.5 Z"/></g>
<g><path style="opacity:1" fill="#121212" d="M 130.5,67.5 C 133.124,69.1978 133.124,71.0312 130.5,73C 121.323,79.5147 112.156,86.0147 103,92.5C 101.566,92.0696 100.399,91.2362 99.5,90C 110.255,82.9681 120.588,75.4681 130.5,67.5 Z"/></g>
<g><path style="opacity:1" fill="#101010" d="M 108.5,98.5 C 107.119,96.7259 107.452,95.2259 109.5,94C 118.333,87.1667 127.167,80.3333 136,73.5C 136.833,74.3333 137.667,75.1667 138.5,76C 129.833,83.6667 121.167,91.3333 112.5,99C 111.181,99.195 109.847,99.0283 108.5,98.5 Z"/></g>
<g><path style="opacity:1" fill="#050505" d="M 20.5,87.5 C 29.574,88.0119 38.574,89.1786 47.5,91C 48.7691,93.1385 48.7691,95.3052 47.5,97.5C 38.4936,101.167 29.1603,103 19.5,103C 17.9265,97.633 18.2598,92.4663 20.5,87.5 Z"/></g>
<g><path style="opacity:1" fill="#080808" d="M 167.5,88.5 C 171.182,88.3347 174.848,88.5014 178.5,89C 179,89.5 179.5,90 180,90.5C 180.799,95.0868 180.632,99.5868 179.5,104C 171.303,103.586 163.303,101.919 155.5,99C 152.059,97.6816 150.725,95.1816 151.5,91.5C 156.906,90.2364 162.239,89.2364 167.5,88.5 Z"/></g>
<g><path style="opacity:1" fill="#0d0d0d" d="M 90.5,96.5 C 91.2899,97.7942 92.2899,98.9609 93.5,100C 87.2408,105.048 81.0741,110.214 75,115.5C 74.6543,118.576 73.9876,121.576 73,124.5C 71,126.5 69,128.5 67,130.5C 66.2802,134.716 64.9469,138.716 63,142.5C 59.012,145.531 54.512,147.364 49.5,148C 46.8333,150 44.1667,152 41.5,154C 38.9462,154.558 36.9462,153.725 35.5,151.5C 35.8076,150.692 36.3076,150.025 37,149.5C 40.0623,151.13 41.729,150.13 42,146.5C 46.1863,141.977 51.353,139.81 57.5,140C 58,139.5 58.5,139 59,138.5C 60.1785,132.565 61.1785,126.565 62,120.5C 62.6667,119.167 63.3333,117.833 64,116.5C 72.5943,109.46 81.4276,102.793 90.5,96.5 Z"/></g>
<g><path style="opacity:1" fill="#0c0c0c" d="M 101.5,105.5 C 101.611,106.117 101.944,106.617 102.5,107C 94.7962,114.373 86.7962,121.373 78.5,128C 76.5,128.667 74.5,128.667 72.5,128C 74.5487,125.404 76.2154,122.571 77.5,119.5C 84.4765,114.358 91.3099,109.024 98,103.5C 98.8159,104.823 99.9826,105.489 101.5,105.5 Z"/></g>
<g><path style="opacity:1" fill="#0f0f0f" d="M 153.5,126.5 C 151.086,127.911 149.419,129.911 148.5,132.5C 142.422,138.242 137.088,144.575 132.5,151.5C 130.348,149.631 129.014,147.131 128.5,144C 130.319,140.022 132.986,136.856 136.5,134.5C 137.5,134.5 138.5,134.5 139.5,134.5C 142.77,134.321 144.437,132.488 144.5,129C 144.361,127.699 143.695,126.866 142.5,126.5C 144.984,119.837 149.651,117.337 156.5,119C 156.957,119.414 157.291,119.914 157.5,120.5C 155.722,122.264 154.389,124.264 153.5,126.5 Z"/></g>
<g><path style="opacity:1" fill="#d4d4d4" d="M 67.5,119.5 C 72.1972,120.874 72.5305,122.874 68.5,125.5C 65.025,123.916 64.6917,121.916 67.5,119.5 Z"/></g>
<g><path style="opacity:1" fill="#050505" d="M 132.5,151.5 C 138.578,145.758 143.912,139.425 148.5,132.5C 150.914,131.089 152.581,129.089 153.5,126.5C 156.168,124.664 158.334,122.331 160,119.5C 163.667,122.5 167.333,125.5 171,128.5C 170.602,130.631 169.602,132.631 168,134.5C 159.991,144.007 151.824,153.34 143.5,162.5C 138.791,159.791 135.124,156.124 132.5,151.5 Z"/></g>
<g><path style="opacity:1" fill="#141414" d="M 52.5,122.5 C 54.8333,122.5 57.1667,122.5 59.5,122.5C 59.5,124.167 59.5,125.833 59.5,127.5C 50.8136,125.356 46.9803,128.69 48,137.5C 45.4428,140.192 42.6095,142.525 39.5,144.5C 38.2638,143.754 36.9305,143.421 35.5,143.5C 35.8495,146.045 35.0162,148.045 33,149.5C 31.5132,147.728 31.1799,145.728 32,143.5C 35.3579,140.642 38.8579,137.975 42.5,135.5C 42.7679,128.564 46.1012,124.231 52.5,122.5 Z"/></g>
<g><path style="opacity:1" fill="#969696" d="M 142.5,126.5 C 143.695,126.866 144.361,127.699 144.5,129C 144.437,132.488 142.77,134.321 139.5,134.5C 142.171,132.653 143.171,129.986 142.5,126.5 Z"/></g>
<g><path style="opacity:1" fill="#c5c5c5" d="M 153.5,126.5 C 152.581,129.089 150.914,131.089 148.5,132.5C 149.419,129.911 151.086,127.911 153.5,126.5 Z"/></g>
<g><path style="opacity:1" fill="#070707" d="M 101.5,135.5 C 101.897,134.475 102.563,134.308 103.5,135C 107.491,137.989 110.324,141.822 112,146.5C 111.667,151.167 111.333,155.833 111,160.5C 115.291,162.565 117.957,161.232 119,156.5C 118.046,172.437 109.546,179.27 93.5,177C 84.0382,172.903 79.5382,165.736 80,155.5C 80.9733,153.36 82.4733,151.693 84.5,150.5C 84.1024,153.04 84.6024,155.707 86,158.5C 88,161.167 90,161.167 92,158.5C 92.2623,154.766 91.7623,151.099 90.5,147.5C 90.7499,143.576 92.2499,140.242 95,137.5C 95.231,141.584 95.8976,145.584 97,149.5C 100.159,152.341 102.492,151.674 104,147.5C 105.11,142.978 104.277,138.978 101.5,135.5 Z"/></g>
<g><path style="opacity:1" fill="#c2c2c2" d="M 148.5,132.5 C 143.912,139.425 138.578,145.758 132.5,151.5C 137.088,144.575 142.422,138.242 148.5,132.5 Z"/></g>
</svg>
